<mxfile host="Electron" agent="Mozilla/5.0 (Windows NT 10.0; Win64; x64) AppleWebKit/537.36 (KHTML, like Gecko) draw.io/26.1.1 Chrome/132.0.6834.210 Electron/34.3.3 Safari/537.36" version="26.1.1">
  <diagram name="Страница — 1" id="bhzFbUjlHaYPYPpDQAFp">
    <mxGraphModel dx="1434" dy="836" grid="1" gridSize="10" guides="1" tooltips="1" connect="1" arrows="1" fold="1" page="1" pageScale="1" pageWidth="827" pageHeight="1169" math="0" shadow="0">
      <root>
        <mxCell id="0" />
        <mxCell id="1" parent="0" />
        <mxCell id="rRF8pPGAYfeASvzRouB8-4" value="Диаграмма базы данных" style="shape=umlFrame;whiteSpace=wrap;html=1;pointerEvents=0;width=90;height=60;" parent="1" vertex="1">
          <mxGeometry x="40" y="40" width="960" height="640" as="geometry" />
        </mxCell>
        <mxCell id="rRF8pPGAYfeASvzRouB8-5" value="Users" style="swimlane;fontStyle=0;childLayout=stackLayout;horizontal=1;startSize=26;fillColor=none;horizontalStack=0;resizeParent=1;resizeParentMax=0;resizeLast=0;collapsible=1;marginBottom=0;whiteSpace=wrap;html=1;" parent="1" vertex="1">
          <mxGeometry x="120" y="120" width="140" height="190" as="geometry" />
        </mxCell>
        <mxCell id="rRF8pPGAYfeASvzRouB8-6" value="+ Id: (PK)" style="text;strokeColor=none;fillColor=none;align=left;verticalAlign=top;spacingLeft=4;spacingRight=4;overflow=hidden;rotatable=0;points=[[0,0.5],[1,0.5]];portConstraint=eastwest;whiteSpace=wrap;html=1;" parent="rRF8pPGAYfeASvzRouB8-5" vertex="1">
          <mxGeometry y="26" width="140" height="26" as="geometry" />
        </mxCell>
        <mxCell id="rRF8pPGAYfeASvzRouB8-7" value="+ Name: String" style="text;strokeColor=none;fillColor=none;align=left;verticalAlign=top;spacingLeft=4;spacingRight=4;overflow=hidden;rotatable=0;points=[[0,0.5],[1,0.5]];portConstraint=eastwest;whiteSpace=wrap;html=1;" parent="rRF8pPGAYfeASvzRouB8-5" vertex="1">
          <mxGeometry y="52" width="140" height="26" as="geometry" />
        </mxCell>
        <mxCell id="rRF8pPGAYfeASvzRouB8-8" value="+ Surname: String&lt;br&gt;&lt;br&gt;+ Role: Id (FK)&lt;br&gt;&lt;br&gt;+ PhoneNumber: String&lt;br&gt;&lt;br&gt;+ Password: String" style="text;strokeColor=none;fillColor=none;align=left;verticalAlign=top;spacingLeft=4;spacingRight=4;overflow=hidden;rotatable=0;points=[[0,0.5],[1,0.5]];portConstraint=eastwest;whiteSpace=wrap;html=1;" parent="rRF8pPGAYfeASvzRouB8-5" vertex="1">
          <mxGeometry y="78" width="140" height="112" as="geometry" />
        </mxCell>
        <mxCell id="rRF8pPGAYfeASvzRouB8-9" value="Roles" style="swimlane;fontStyle=0;childLayout=stackLayout;horizontal=1;startSize=26;fillColor=none;horizontalStack=0;resizeParent=1;resizeParentMax=0;resizeLast=0;collapsible=1;marginBottom=0;whiteSpace=wrap;html=1;" parent="1" vertex="1">
          <mxGeometry x="320" y="120" width="140" height="78" as="geometry" />
        </mxCell>
        <mxCell id="rRF8pPGAYfeASvzRouB8-10" value="+ Id: (PK)" style="text;strokeColor=none;fillColor=none;align=left;verticalAlign=top;spacingLeft=4;spacingRight=4;overflow=hidden;rotatable=0;points=[[0,0.5],[1,0.5]];portConstraint=eastwest;whiteSpace=wrap;html=1;" parent="rRF8pPGAYfeASvzRouB8-9" vertex="1">
          <mxGeometry y="26" width="140" height="26" as="geometry" />
        </mxCell>
        <mxCell id="rRF8pPGAYfeASvzRouB8-11" value="+ Name: String" style="text;strokeColor=none;fillColor=none;align=left;verticalAlign=top;spacingLeft=4;spacingRight=4;overflow=hidden;rotatable=0;points=[[0,0.5],[1,0.5]];portConstraint=eastwest;whiteSpace=wrap;html=1;" parent="rRF8pPGAYfeASvzRouB8-9" vertex="1">
          <mxGeometry y="52" width="140" height="26" as="geometry" />
        </mxCell>
        <mxCell id="rRF8pPGAYfeASvzRouB8-13" value="Workouts" style="swimlane;fontStyle=0;childLayout=stackLayout;horizontal=1;startSize=26;fillColor=none;horizontalStack=0;resizeParent=1;resizeParentMax=0;resizeLast=0;collapsible=1;marginBottom=0;whiteSpace=wrap;html=1;" parent="1" vertex="1">
          <mxGeometry x="120" y="440" width="140" height="160" as="geometry" />
        </mxCell>
        <mxCell id="rRF8pPGAYfeASvzRouB8-14" value="+ Id: (PK)" style="text;strokeColor=none;fillColor=none;align=left;verticalAlign=top;spacingLeft=4;spacingRight=4;overflow=hidden;rotatable=0;points=[[0,0.5],[1,0.5]];portConstraint=eastwest;whiteSpace=wrap;html=1;" parent="rRF8pPGAYfeASvzRouB8-13" vertex="1">
          <mxGeometry y="26" width="140" height="26" as="geometry" />
        </mxCell>
        <mxCell id="rRF8pPGAYfeASvzRouB8-15" value="+ NameId: (FK)" style="text;strokeColor=none;fillColor=none;align=left;verticalAlign=top;spacingLeft=4;spacingRight=4;overflow=hidden;rotatable=0;points=[[0,0.5],[1,0.5]];portConstraint=eastwest;whiteSpace=wrap;html=1;" parent="rRF8pPGAYfeASvzRouB8-13" vertex="1">
          <mxGeometry y="52" width="140" height="26" as="geometry" />
        </mxCell>
        <mxCell id="rRF8pPGAYfeASvzRouB8-16" value="+ UserId: (FK)&lt;br&gt;&lt;br&gt;+ Duration: DateTime&lt;br&gt;&lt;br&gt;+ State: (FK)" style="text;strokeColor=none;fillColor=none;align=left;verticalAlign=top;spacingLeft=4;spacingRight=4;overflow=hidden;rotatable=0;points=[[0,0.5],[1,0.5]];portConstraint=eastwest;whiteSpace=wrap;html=1;" parent="rRF8pPGAYfeASvzRouB8-13" vertex="1">
          <mxGeometry y="78" width="140" height="82" as="geometry" />
        </mxCell>
        <mxCell id="rRF8pPGAYfeASvzRouB8-25" value="Exercises" style="swimlane;fontStyle=0;childLayout=stackLayout;horizontal=1;startSize=26;fillColor=none;horizontalStack=0;resizeParent=1;resizeParentMax=0;resizeLast=0;collapsible=1;marginBottom=0;whiteSpace=wrap;html=1;" parent="1" vertex="1">
          <mxGeometry x="280" y="440" width="140" height="110" as="geometry" />
        </mxCell>
        <mxCell id="rRF8pPGAYfeASvzRouB8-26" value="+ Id: (PK)&lt;br&gt;&lt;br&gt;+ Name: String&lt;br&gt;&lt;br&gt;+ WorkoutId: (FK)" style="text;strokeColor=none;fillColor=none;align=left;verticalAlign=top;spacingLeft=4;spacingRight=4;overflow=hidden;rotatable=0;points=[[0,0.5],[1,0.5]];portConstraint=eastwest;whiteSpace=wrap;html=1;" parent="rRF8pPGAYfeASvzRouB8-25" vertex="1">
          <mxGeometry y="26" width="140" height="84" as="geometry" />
        </mxCell>
        <mxCell id="luVzm5VcN_ooZqgdvmvw-8" value="Sets" style="swimlane;fontStyle=0;childLayout=stackLayout;horizontal=1;startSize=26;fillColor=none;horizontalStack=0;resizeParent=1;resizeParentMax=0;resizeLast=0;collapsible=1;marginBottom=0;whiteSpace=wrap;html=1;" parent="1" vertex="1">
          <mxGeometry x="440" y="440" width="140" height="140" as="geometry" />
        </mxCell>
        <mxCell id="luVzm5VcN_ooZqgdvmvw-9" value="+ Id: (PK)&lt;br&gt;&lt;br&gt;+ Number: Int&lt;br&gt;&lt;br&gt;+ Weight: Int&lt;br&gt;&lt;br&gt;+ ExcerciseId: (FK)" style="text;strokeColor=none;fillColor=none;align=left;verticalAlign=top;spacingLeft=4;spacingRight=4;overflow=hidden;rotatable=0;points=[[0,0.5],[1,0.5]];portConstraint=eastwest;whiteSpace=wrap;html=1;" parent="luVzm5VcN_ooZqgdvmvw-8" vertex="1">
          <mxGeometry y="26" width="140" height="114" as="geometry" />
        </mxCell>
        <mxCell id="luVzm5VcN_ooZqgdvmvw-12" value="Repetitions" style="swimlane;fontStyle=0;childLayout=stackLayout;horizontal=1;startSize=26;fillColor=none;horizontalStack=0;resizeParent=1;resizeParentMax=0;resizeLast=0;collapsible=1;marginBottom=0;whiteSpace=wrap;html=1;" parent="1" vertex="1">
          <mxGeometry x="600" y="440" width="140" height="110" as="geometry" />
        </mxCell>
        <mxCell id="luVzm5VcN_ooZqgdvmvw-13" value="+ Id: (PK)&lt;br&gt;&lt;br&gt;+ Count: Int&lt;br&gt;&lt;br&gt;+ SetId: (FK)" style="text;strokeColor=none;fillColor=none;align=left;verticalAlign=top;spacingLeft=4;spacingRight=4;overflow=hidden;rotatable=0;points=[[0,0.5],[1,0.5]];portConstraint=eastwest;whiteSpace=wrap;html=1;" parent="luVzm5VcN_ooZqgdvmvw-12" vertex="1">
          <mxGeometry y="26" width="140" height="84" as="geometry" />
        </mxCell>
      </root>
    </mxGraphModel>
  </diagram>
</mxfile>
